name rise35.5848peak51.9257fall54.8793.mot
datacolumns 19
datarows 20
range 16.43661400000000 16.46826400000000
endheader
time	ground_force1_vx	ground_force1_vy	ground_force1_vz	ground_force1_px	ground_force1_py	ground_force1_pz	ground_force2_vx	ground_force2_vy	ground_force2_vz	ground_force2_px	ground_force2_py	ground_force2_pz	ground_torque1_x	ground_torque1_y	ground_torque1_z	ground_torque2_x	ground_torque2_y	ground_torque2_z	
16.43661400000000	-1.17609900000000	45.51195500000000	-8.66382400000000	0.30299100000000	0.00000000000000	0.11242200000000	-53.39883000000000	814.19888700000001	-51.78857800000000	0.09296900000000	0.00000000000000	-0.07335000000000	0.00000000000000	-6.03731100000000	0.00000000000000	0.00000000000000	-17.19814700000000	0.00000000000000	
16.43826900000000	-1.25121100000000	52.13508300000000	-9.59210400000000	0.30508400000000	0.00000000000000	0.11300700000000	-54.35049800000000	812.25646700000004	-51.41983400000000	0.09204600000000	0.00000000000000	-0.07321100000000	0.00000000000000	-6.70698900000000	0.00000000000000	0.00000000000000	-17.17124400000000	0.00000000000000	
16.43994200000000	-1.29374600000000	58.72125700000000	-10.42537700000000	0.30701600000000	0.00000000000000	0.11355300000000	-55.31206400000000	810.14270499999998	-51.02640100000000	0.09112700000000	0.00000000000000	-0.07306900000000	0.00000000000000	-7.31528200000000	0.00000000000000	0.00000000000000	-17.14475300000000	0.00000000000000	
16.44159700000000	-1.29911500000000	65.20544700000001	-11.14957800000000	0.30881300000000	0.00000000000000	0.11406500000000	-56.28248200000000	807.85378600000001	-50.60811500000000	0.09021300000000	0.00000000000000	-0.07292500000000	0.00000000000000	-7.85252200000000	0.00000000000000	0.00000000000000	-17.11861000000000	0.00000000000000	
16.44326500000000	-1.26378000000000	71.54688700000000	-11.75720200000000	0.31049300000000	0.00000000000000	0.11454700000000	-57.26060300000000	805.38595699999996	-50.16485900000000	0.08930400000000	0.00000000000000	-0.07277800000000	0.00000000000000	-8.31368900000000	0.00000000000000	0.00000000000000	-17.09273500000000	0.00000000000000	
16.44494900000000	-1.18524300000000	77.72866900000000	-12.24688100000000	0.31207200000000	0.00000000000000	0.11500400000000	-58.24517700000000	802.73554100000001	-49.69655800000000	0.08840000000000	0.00000000000000	-0.07262800000000	0.00000000000000	-8.69814300000000	0.00000000000000	0.00000000000000	-17.06703500000000	0.00000000000000	
16.44659600000000	-1.06195600000000	83.75544499999999	-12.62254900000000	0.31356200000000	0.00000000000000	0.11543800000000	-59.23485200000000	799.89894500000003	-49.20318900000000	0.08750200000000	0.00000000000000	-0.07247600000000	0.00000000000000	-9.00902800000000	0.00000000000000	0.00000000000000	-17.04140000000000	0.00000000000000	
16.44826500000000	-0.89317800000000	89.64974500000000	-12.89230500000000	0.31497300000000	0.00000000000000	0.11585100000000	-60.22817300000000	796.87266899999997	-48.68477500000000	0.08661000000000	0.00000000000000	-0.07232100000000	0.00000000000000	-9.25247500000000	0.00000000000000	0.00000000000000	-17.01570900000000	0.00000000000000	
16.44994600000000	-0.67880200000000	95.44747800000000	-13.06713600000000	0.31631500000000	0.00000000000000	0.11624700000000	-61.22358900000000	793.65332300000000	-48.14139200000000	0.08572500000000	0.00000000000000	-0.07216300000000	0.00000000000000	-9.43668700000000	0.00000000000000	0.00000000000000	-16.98982400000000	0.00000000000000	
16.45161900000000	-0.41917300000000	101.19310700000000	-13.15962700000000	0.31759500000000	0.00000000000000	0.11662700000000	-62.21944900000000	790.23763299999996	-47.57316700000000	0.08484700000000	0.00000000000000	-0.07200300000000	0.00000000000000	-9.57102200000000	0.00000000000000	0.00000000000000	-16.96359400000000	0.00000000000000	
16.45327000000000	-0.11491000000000	106.93497300000000	-13.18276600000000	0.31881700000000	0.00000000000000	0.11699200000000	-63.21400700000000	786.62245499999995	-46.98028000000000	0.08397600000000	0.00000000000000	-0.07183900000000	0.00000000000000	-9.66512500000000	0.00000000000000	0.00000000000000	-16.93685400000000	0.00000000000000	
16.45493300000000	0.23325900000000	112.72109000000000	-13.14891800000000	0.31998800000000	0.00000000000000	0.11734400000000	-64.20542800000000	782.80478800000003	-46.36296600000000	0.08311300000000	0.00000000000000	-0.07167300000000	0.00000000000000	-9.72819400000000	0.00000000000000	0.00000000000000	-16.90942800000000	0.00000000000000	
16.45659700000000	0.62461800000000	118.59567900000000	-13.06903200000000	0.32110900000000	0.00000000000000	0.11768400000000	-65.19178500000000	778.78178800000001	-45.72151400000000	0.08225800000000	0.00000000000000	-0.07150400000000	0.00000000000000	-9.76839800000000	0.00000000000000	0.00000000000000	-16.88112300000000	0.00000000000000	
16.45826300000000	1.05856600000000	124.59657400000000	-12.95208600000000	0.32218600000000	0.00000000000000	0.11801300000000	-66.17106900000000	774.55078200000003	-45.05627200000000	0.08141100000000	0.00000000000000	-0.07133200000000	0.00000000000000	-9.79247300000000	0.00000000000000	0.00000000000000	-16.85173900000000	0.00000000000000	
16.45994900000000	1.53467400000000	130.75353999999999	-12.80478400000000	0.32322000000000	0.00000000000000	0.11833200000000	-67.14119100000001	770.10928200000001	-44.36764100000000	0.08057300000000	0.00000000000000	-0.07115700000000	0.00000000000000	-9.80549400000000	0.00000000000000	0.00000000000000	-16.82105900000000	0.00000000000000	
16.46160000000000	2.05270800000000	137.08747399999999	-12.63147500000000	0.32421300000000	0.00000000000000	0.11864200000000	-68.09998600000000	765.45500000000004	-43.65608000000000	0.07974300000000	0.00000000000000	-0.07098000000000	0.00000000000000	-9.81081500000000	0.00000000000000	0.00000000000000	-16.78886000000000	0.00000000000000	
16.46326600000000	2.61262800000000	143.61038300000001	-12.43426800000000	0.32516600000000	0.00000000000000	0.11894400000000	-69.04521900000000	760.58586400000002	-42.92210600000000	0.07892300000000	0.00000000000000	-0.07079900000000	0.00000000000000	-9.81014100000000	0.00000000000000	0.00000000000000	-16.75490600000000	0.00000000000000	
16.46494000000000	3.21456000000000	150.32599900000000	-12.21328600000000	0.32608200000000	0.00000000000000	0.11923800000000	-69.97459300000000	755.50003500000003	-42.16629200000000	0.07811100000000	0.00000000000000	-0.07061600000000	0.00000000000000	-9.80371100000000	0.00000000000000	0.00000000000000	-16.71895400000000	0.00000000000000	
16.46659800000000	3.85874300000000	157.23087799999999	-11.96703400000000	0.32696000000000	0.00000000000000	0.11952400000000	-70.88575000000000	750.19592299999999	-41.38926900000000	0.07730800000000	0.00000000000000	-0.07042900000000	0.00000000000000	-9.79055900000000	0.00000000000000	0.00000000000000	-16.68075200000000	0.00000000000000	
16.46826400000000	4.54547800000000	164.31579400000001	-11.69281000000000	0.32780100000000	0.00000000000000	0.11980400000000	-71.77628400000000	744.67220099999997	-40.59172500000000	0.07651500000000	0.00000000000000	-0.07024000000000	0.00000000000000	-9.76880800000000	0.00000000000000	0.00000000000000	-16.64003900000000	0.00000000000000	
